<svg xmlns="http://www.w3.org/2000/svg" xmlns:xlink="http://www.w3.org/1999/xlink" id="Layer_1" x="0" y="0" version="1.1" viewBox="0 0 1000 1000" xml:space="preserve" style="enable-background:new 0 0 1000 1000"><style type="text/css">.st0,.st1{fill-rule:evenodd;clip-rule:evenodd;fill:#fff}.st1{fill:#1e1e1e}</style><g id="Layer_2_1_"><g id="Layer_1-2"><path id="SVGID" d="M500,0c276.1,0,500,223.9,500,500s-223.9,500-500,500S0,776.1,0,500S223.9,0,500,0z" class="st0"/></g></g><g id="Spread"><g id="pebbles-pad" transform="translate(1.000000, 1.000000)"><g id="pebbles"><g transform="translate(17.000000, 38.000000) translate(0.000000, 0.741803)"><path id="peb-bot" d="M593.4,505.7c96.6,14.3,164.1,46.6,164.1,84.2c0,50.8-123.3,92-275.4,92s-275.4-41.2-275.4-92 c0-37.6,67.4-69.9,164.1-84.2c33.2,6.8,71.1,10.6,111.4,10.6c39.2,0,76.3-3.6,108.9-10.1L593.4,505.7z" class="st1"/><path id="peb-med" d="M551.7,354.3c87.5,9.7,150.6,37.3,150.6,69.9c0,40.7-98.6,73.6-220.3,73.6 s-220.3-33-220.3-73.6c0-32.5,63.1-60.1,150.6-69.9c21.4,3.5,45,5.4,69.7,5.4c23.9,0,46.6-1.8,67.4-5.1L551.7,354.3z" class="st1"/><g id="peb-top" transform="translate(44.400000, 0.000000)"><ellipse id="peb-sm" cx="437.6" cy="289.8" class="st1" rx="165.3" ry="55.2"/></g></g></g></g></g></svg>
